Patient4_TMGait_0pt6_01_left_18_EMG.mot
version=1
nRows=23
nColumns=33
inDegrees=no
endheader
time	1LAddLong	2LGlutMax	3LGlutMed	4LIliopsoas	5LSemiMemb	6LBicFemLong	7LRecFem	8LVastMed	9LVastLat	10LGasMed	11LTibAnt	12lTibPost	13LPeroneusLong	14LSol	15LExtDigLong	16LFlexDigLong	17RAddLong	18RGlutMax	19RGlutMed	20RIliopsoas	21RSemiMemb	22RBicFemLong	23RRecFem	24RVastMed	25RVastLat	26RGasMed	27RTibAnt	28RTibPost	29RPeroneusLong	30RSol	31RExtDigLong	32RFlexDigLong
21.88	0.000305	0.11749	-0.03891	-0.00061	-0.060883	0.007629	-0.035248	0.008698	0.29022	-0.015259	0.017548	0.00473	0.10086	-0.071411	-0.0354	-0.009918	0.001068	-0.20279	-0.31326	0.18448	-0.13596	-0.048523	-0.43961	0.20035	-0.010376	0.008545	-0.168	-0.007019	1.4455	-0.19867	0.00351	-0.008392
21.881	0.02121	0.112	-0.029907	0.006714	-0.04837	-0.021667	-0.031586	0.011444	0.2713	-0.021973	0.072784	0.007019	0.087433	-0.13504	0.27374	-0.00412	0.050049	-0.11063	-0.62485	0.31006	-0.21316	-0.16296	-0.19257	-0.014801	-0.071259	0.014496	0.72159	-0.002289	1.2408	-0.2684	-0.001984	-0.000153
21.882	0.016785	0.11124	-0.037689	-0.005341	-0.020447	-0.041199	-0.034485	0.013123	0.27191	-0.031738	0.22675	0.000305	0.071411	-0.17425	1.3817	-0.008087	0.04776	-0.057068	-0.52094	0.21088	-0.12375	-0.11673	-0.16296	-0.16007	-0.062866	0.006866	0.93994	0	-0.54611	-0.24597	0.000305	0.001068
21.883	0.007172	0.081329	-0.041656	0.006561	0.014954	-0.029144	-0.029144	-0.003052	0.2832	-0.042877	0.30991	0.006866	0.030975	-0.08667	-0.1474	-0.001373	0.025482	0.011444	0.35034	0.13931	-0.1796	-0.058441	-0.093536	-0.13672	-0.02121	-0.003967	0.5896	-0.003815	-1.1766	-0.16235	-0.002136	0.000916
21.884	0.010376	0.11581	-0.053406	0.003967	0.005188	-0.034332	-0.049896	-0.010223	0.26337	-0.087433	0.18005	0.004425	0.07782	0.058594	-0.25574	0.001068	0.00061	0.094452	0.22766	0.10986	-0.16052	0.048218	-0.016327	-0.029144	0.008545	-0.003357	0.088348	-0.005341	-0.67902	-0.20569	0.004272	-0.001068
21.885	0.023499	0.097656	-0.075073	0.001526	-0.003815	-0.024109	-0.029144	0.005341	0.26642	-0.0914	-0.10315	0.001373	0.077515	0.085449	-0.34637	-0.003357	-0.000916	0.14511	0.48462	0.031128	-0.006256	0.04837	-0.001373	0.12451	0.05661	0.013123	-0.42129	0.001678	1.2292	-0.26977	-0.003662	0.000458
21.886	0.020752	0.10239	-0.075989	0.010986	0.028076	-0.026093	-0.027008	0.007629	0.271	-0.036316	-0.26199	0.004272	0.070343	0.078583	-0.38132	-0.007477	-0.005035	0.20096	-0.016632	-0.03006	0.14832	0.063477	-0.018768	0.097351	0.087433	0.00824	-0.58121	-0.009308	1.1888	-0.10986	-0.003052	0.000916
21.887	0.027466	0.10254	-0.061493	-0.006104	0.033875	-0.000763	-0.035553	0.001984	0.26611	0.013275	-0.31982	0.004425	0.085602	0.019836	-0.3598	-0.016632	-0.003662	0.26901	0.039368	-0.11414	0.1683	0.039215	0.040894	0.11093	0.06485	0.013123	-0.40863	-0.000916	0.95062	-0.19913	-0.001526	0.007019
21.888	0.019836	0.096893	-0.042877	0.013123	0.012817	0.009155	-0.02182	0.005798	0.26047	0.009003	-0.17395	0.002747	0.18585	-0.11185	-0.14664	-0.020447	-0.022583	0.22903	0.15747	-0.10437	0.039368	-0.042419	0.067902	0.001373	0.30716	0.003052	-0.1265	-0.002441	-0.35996	-0.26062	-0.010223	0.003204
21.889	0.016327	0.089874	-0.049286	0.010986	0.007935	-0.007629	-0.030212	0.011749	0.24536	0.004272	0	0.000153	0.22736	-0.16357	-0.14313	-0.002136	-0.031128	0.19989	0.074768	-0.10651	0.018005	-0.12222	0.13306	-0.09903	0.39002	-0.010681	0.29007	-0.008698	-1.1519	-0.060272	-0.003662	-0.005646
21.89	0.014801	0.091248	-0.059662	0.007782	-0.001984	0.008392	-0.0177	0.004578	0.25024	-0.029907	-0.019684	0.000153	0.20142	-0.14008	-0.17181	0.00412	-0.048828	0.24887	-0.092773	-0.06958	-0.10284	-0.11505	0.26306	-0.103	0.29541	-0.009918	-0.02655	-0.008698	-1.3351	0.10315	0.001373	-0.007324
21.891	0.009308	0.071716	-0.087433	0.001221	-0.006561	-0.00473	-0.023956	-0.022125	0.23514	-0.033569	-0.004272	0.003357	0.12299	-0.035858	-0.051575	-0.000305	-0.007629	0.29175	0.059204	-0.032043	-0.24216	-0.10284	0.38284	-0.1297	0.05127	0.006561	-0.34302	-0.007019	-0.25436	0.16678	-0.001984	-0.01297
21.892	0.015106	0.06073	-0.084686	-0.012207	-0.018005	0.00824	-0.02121	-0.001373	0.22964	-0.028076	0.024414	-0.002594	0.003662	-0.09552	0.035706	0.005646	-0.010986	0.35065	0.073547	0.090027	-0.1059	-0.066528	0.439	-0.28976	-0.12909	0.00824	-0.42602	-0.003204	0.59738	0.24628	-0.003967	-0.012512
21.893	0.007935	0.093842	-0.1004	0.001526	-0.03952	-0.027924	-0.018463	0.009918	0.2417	-0.024872	0.023499	0.001984	-0.008392	-0.112	0.063171	0.004578	-0.040894	0.4216	0.23514	0.11276	-0.007782	-0.11505	0.15381	-0.24918	-0.23605	-0.009766	-0.10529	-0.000458	0.47119	0.20218	-0.001373	-0.013733
21.894	0.007935	0.075684	-0.12009	0.005341	-0.048981	-0.094604	-0.039215	0.011444	0.23773	-0.03479	0.023041	0.005798	0.078888	-0.08667	0.13382	0.011749	-0.059967	0.39581	0.29785	0.10468	0.11292	-0.16068	-0.47134	0.21698	-0.25787	-0.007629	0.020294	-0.003357	0.09079	0.15274	-0.000305	-0.011902
21.895	-0.009613	0.091705	-0.10437	0.010986	-0.011292	-0.0914	-0.02533	0.009003	0.22858	-0.023804	0.03006	-0.005341	0.14343	-0.090027	0.19302	0.003204	-0.035095	0.34973	0.070038	0.080872	0.25253	-0.21088	-0.56076	0.29434	-0.47577	-0.009918	0.13901	-0.006561	1.2531	0.15152	-0.000458	-0.011749
21.896	-0.000458	0.071716	-0.096436	0.013123	-0.018768	-0.092926	-0.03067	0.013733	0.22583	-0.020905	0.035553	0.002441	0.1268	-0.004578	0.32928	-0.000916	0.000458	0.35126	0.19608	0.06485	0.27542	-0.29175	-0.29846	0.22339	-0.32669	-0.009003	0.074768	-0.002594	0.56015	0.071564	-0.002136	-0.011292
21.897	0.013428	0.074615	-0.00473	0.011597	-0.002747	-0.081329	-0.012665	0.01709	0.22568	-0.024719	0.024414	-0.005341	0.17059	0.18631	0.2124	-0.000763	0.019989	0.37766	-0.18433	0.1033	0.16968	-0.27481	-0.085144	0.168	-0.032806	0.006714	-0.19058	-0.001526	0.3064	-0.11963	0.001678	-0.014038
21.898	0.021667	0.095215	0.051422	-0.004425	0.007629	-0.075989	-0.037994	0.006409	0.22201	-0.031891	0.042267	0	0.077057	0.16205	0.10193	-0.004578	0.015869	0.40878	-0.061951	0.00351	-0.027313	-0.12878	0.014648	0.4042	-0.009766	0.005035	-0.10986	-0.002441	-0.58105	0.008392	0.000305	-0.010223
21.899	0.008698	0.11429	0.010529	0.001373	0.032196	-0.058289	-0.030212	0.007172	0.22492	-0.025177	0.018158	0.002747	0.05188	-0.080414	0.044861	0.002747	0.012665	0.41245	0.29923	-0.064697	-0.16541	-0.088043	-0.071716	0.36789	0.082703	-0.009766	0.076141	-0.003204	-1.1565	0.10986	-0.003357	-0.010071
21.9	0.027771	0.095978	-0.022888	0.016632	-0.024414	-0.078888	-0.023041	0.006714	0.21591	-0.033722	0.009308	-0.001068	0.027161	-0.35431	0.014954	-0.005341	0.021515	0.38422	-0.336	0.025635	-0.072479	-0.14191	0.13428	0.098572	0.15152	-0.010376	0.10346	-0.001984	-0.64163	0.24139	-0.003052	-0.010529
21.901	0.024414	0.10254	-0.031281	0.013885	-0.012817	-0.080261	-0.035858	0.008545	0.21149	-0.044861	-0.002441	-0.002289	0.012512	-0.42175	0.038605	-0.006104	0.018616	0.4422	0.14343	0.057678	0.005035	-0.17364	0.31372	-0.068512	0.086975	-0.006714	0.11704	-0.002289	-0.49179	0.27863	-0.002594	-0.006714
21.902	0.0177	0.11246	-0.043182	0.005798	0.059357	-0.061951	-0.0383	0.00885	0.20218	-0.024719	0.000305	-0.005951	0.056305	-0.31464	0.052643	0.002747	0.016022	0.46951	0.38681	-0.012512	0.013275	-0.31738	0.17716	0.016022	0.067291	0	0.092316	-0.003357	-0.75073	0.23453	-0.002289	-0.007629
